PathFileType	4	(X/Y/Z)	CPRIT_Patient3_L_KneeIso_Processed.TRC
DataRate	CameraRate	NumFrames	NumMarkers	Units	OrigDataRate	OrigDataStartFrame	OrigNumFrames
150.195058517555	150.195058517555	7	36	m	150.195058517555	1	       771
Frame#	Time	R.Heel			R.Midfoot.Superior			R.Midfoot.Lateral			R.Toe			L.Heel			L.Midfoot.Superior			L.Midfoot.Lateral			L.Toe			R.Shank.Superior			R.Shank.Inferior			R.Shank.Lateral			R.Shank.Posterior			L.Shank.Superior			L.Shank.Inferior			L.Shank.Posterior			L.Shank.Lateral			R.Patella			L.Patella			R.Thigh.Superior			R.Thigh.Lateral			R.Thigh.Inferior			L.Thigh.Superior			L.Thigh.Inferior			L.Thigh.Lateral			L.Asis			R.Asis			R.Shoulder			L.Shoulder			C7			J.Notch			Sternum			Thoracic			L.Elbow			L.Wrist			R.Elbow			R.Wrist			
		X1	Y1	Z1	X2	Y2	Z2	X3	Y3	Z3	X4	Y4	Z4	X5	Y5	Z5	X6	Y6	Z6	X7	Y7	Z7	X8	Y8	Z8	X9	Y9	Z9	X10	Y10	Z10	X11	Y11	Z11	X12	Y12	Z12	X13	Y13	Z13	X14	Y14	Z14	X15	Y15	Z15	X16	Y16	Z16	X17	Y17	Z17	X18	Y18	Z18	X19	Y19	Z19	X20	Y20	Z20	X21	Y21	Z21	X22	Y22	Z22	X23	Y23	Z23	X24	Y24	Z24	X25	Y25	Z25	X26	Y26	Z26	X27	Y27	Z27	X28	Y28	Z28	X29	Y29	Z29	X30	Y30	Z30	X31	Y31	Z31	X32	Y32	Z32	X33	Y33	Z33	X34	Y34	Z34	X35	Y35	Z35	X36	Y36	Z36	

1	0.000000000000	0.480679883351	0.049401133023	0.082898896997	0.647409712155	0.097948998470	0.116307554982	0.549820795721	0.038081718100	0.147868897940	0.762031660797	0.054538770108	0.140134512274	0.708735923286	0.056119984973	-0.068713482166	0.859166640987	0.150789398733	-0.091531841815	0.787016396143	0.063891344136	-0.127696675529	0.982595346404	0.140860426357	-0.099082920765	0.607464750512	0.357630260426	0.149087451157	0.598301321602	0.237901951339	0.138241243296	0.528680172529	0.289768762786	0.194763090009	0.469075019318	0.356505834130	0.140090598063	0.766158702559	0.408896499897	-0.089308514166	0.781147762193	0.280928245797	-0.087364846416	0.631776993105	0.357972675803	-0.095883859373	0.718063981431	0.315508469060	-0.144867821250	0.636278377829	0.465948751437	0.135953944612	0.763909520824	0.528911879905	-0.073071299724	0.690816855227	0.775644697796	0.167241454907	0.608866220124	0.705982046581	0.223016234341	0.676525367678	0.616937976409	0.134423344242	0.699133777688	0.820124309989	-0.096984789450	0.738015605013	0.670409170196	-0.077297873118	0.628381860534	0.729064308255	-0.149792551395	0.650171828022	0.957734833449	-0.073252722375	0.682115218056	0.936430593834	0.159624004196	0.580138131345	1.445802646615	0.231775842435	0.603874254227	1.435523378913	-0.097690577550	0.548533965191	1.480605307666	0.084306965935	0.669308271132	1.382299765014	0.071230617082	0.725661215960	1.202507889327	0.057948740243	0.465376304380	1.325629752024	0.074944839622	0.550771516636	1.173900512068	-0.275021605877	0.615331479227	0.988321865248	-0.432302981258	0.553728676389	1.142283629420	0.390324672788	0.763442896926	0.990471990889	0.414845047521	
2	0.006658008658	0.480680263442	0.049401612881	0.082897708899	0.647411002100	0.097956660460	0.116306604424	0.549818999697	0.038080628172	0.147867768298	0.762028862275	0.054539638457	0.140135395943	0.707597538005	0.056027748084	-0.068829008225	0.858259793714	0.150360520948	-0.091511025452	0.785959875620	0.063642931484	-0.127736932312	0.981666643398	0.140143364661	-0.098993194672	0.607498980202	0.357620128605	0.149088511880	0.598320982102	0.237903150183	0.138252169531	0.528698668466	0.289770410651	0.194756014804	0.469107885515	0.356512144963	0.140086176842	0.765918265353	0.408666358513	-0.089264389090	0.780555732960	0.280635482639	-0.087376730847	0.631472117034	0.358083009646	-0.095908697919	0.717650767257	0.315404792867	-0.144895655274	0.636319027033	0.465944367110	0.135958940671	0.763961421909	0.528689338356	-0.073028167249	0.690865935208	0.775639635371	0.167257860743	0.608904088865	0.705981440879	0.223027741266	0.676578284049	0.616943810838	0.134448893726	0.699234502747	0.820080048806	-0.096941247506	0.738112833882	0.670280202246	-0.077298277131	0.628493040243	0.729016585441	-0.149786480032	0.650278031168	0.957715291379	-0.073218397551	0.682183124693	0.936442589358	0.159645573193	0.580130313711	1.445799818963	0.231782122210	0.603899685182	1.435524910127	-0.097685102424	0.548541211134	1.480594671920	0.084321493273	0.669332348154	1.382294313770	0.071250358106	0.725686587166	1.202506422459	0.057985046044	0.465452413809	1.325595399406	0.074909281623	0.550781964850	1.173897482220	-0.275012187197	0.615336031031	0.988327161324	-0.432297452762	0.553715155822	1.142276789391	0.390325830725	0.763439546573	0.990474835865	0.414851108225	
3	0.013316017316	0.480680657809	0.049402105465	0.082896484562	0.647412316564	0.097964092238	0.116305516237	0.549817264654	0.038079655711	0.147866601931	0.762026251810	0.054540888038	0.140136805415	0.706406287069	0.055930996352	-0.068944951127	0.857307907465	0.149914678884	-0.091489503371	0.784850250150	0.063384806442	-0.127777637757	0.980691169512	0.139400283108	-0.098902054749	0.607533908811	0.357609955992	0.149089543941	0.598341099982	0.237904153921	0.138262928390	0.528717745805	0.289772247127	0.194749032368	0.469141579700	0.356518783957	0.140081776536	0.765664457225	0.408426183975	-0.089219114586	0.779935614883	0.280331344053	-0.087387323396	0.631148094403	0.358197874389	-0.095936550151	0.717215365466	0.315296361609	-0.144923073421	0.636360840249	0.465939289677	0.135964760017	0.764014290133	0.528457553309	-0.072984046474	0.690917497183	0.775634318069	0.167274335124	0.608943842448	0.705980934315	0.223039430048	0.676633112278	0.616949363009	0.134474998278	0.699336505552	0.820034278671	-0.096898556065	0.738210940595	0.670147379303	-0.077300225927	0.628605643388	0.728966482748	-0.149779793740	0.650386874124	0.957695469077	-0.073183997193	0.682260653350	0.936456898395	0.159663335662	0.580120981105	1.445796062487	0.231788730447	0.603925899039	1.435526427563	-0.097679229108	0.548548214284	1.480583946907	0.084336573953	0.669357142877	1.382289506764	0.071271203103	0.725713266240	1.202505466254	0.058022529653	0.465528632279	1.325560694398	0.074873854207	0.550792951533	1.173894287984	-0.275002862870	0.615340741362	0.988332504109	-0.432291827835	0.553700361467	1.142268356925	0.390325932693	0.763435838194	0.990477649860	0.414857032939	
4	0.019974025974	0.480681061904	0.049402594658	0.082895255596	0.647413643066	0.097971184136	0.116304322142	0.549815616482	0.038078792510	0.147865409501	0.762023860277	0.054542577085	0.140138832405	0.705162340863	0.055829905167	-0.069060023627	0.856310432942	0.149452810851	-0.091467272977	0.783686778385	0.063117573378	-0.127818372008	0.979668212769	0.138632951418	-0.098810130941	0.607569375025	0.357599858531	0.149090574488	0.598361582781	0.237904893866	0.138273361695	0.528737349301	0.289774258666	0.194742186183	0.469175940391	0.356525748115	0.140077434091	0.765396859647	0.408176249011	-0.089172701425	0.779287329211	0.280016443479	-0.087396095857	0.630803958974	0.358317131377	-0.095967327105	0.716757032505	0.315183228118	-0.144949625400	0.636403723975	0.465933414122	0.135971780348	0.764067787291	0.528216780942	-0.072939101044	0.690971477841	0.775628721135	0.167290691355	0.608985486428	0.705980481457	0.223051145982	0.676689647643	0.616954440878	0.134501305990	0.699439085493	0.819987116766	-0.096857394065	0.738309287050	0.670011161502	-0.077303943965	0.628718811234	0.728914007821	-0.149772307213	0.650497760897	0.957675527728	-0.073149945221	0.682348329360	0.936473653542	0.159676630070	0.580110026541	1.445791333986	0.231795727395	0.603952778719	1.435527817513	-0.097672894526	0.548554934675	1.480573160235	0.084352011587	0.669382508983	1.382285340293	0.071293025286	0.725741204484	1.202505069404	0.058060973908	0.465604243527	1.325525884716	0.074838859203	0.550804565125	1.173890982207	-0.274993462160	0.615345522936	0.988337767547	-0.432286134950	0.553684208310	1.142258108826	0.390324766954	0.763431788277	0.990480358209	0.414862700833	
5	0.026632034632	0.480681470378	0.049403066228	0.082894050096	0.647414968846	0.097977841031	0.116303049711	0.549814075723	0.038078029909	0.147864201713	0.762021711075	0.054544762121	0.140141564920	0.703865463524	0.055724669295	-0.069172903531	0.855266456969	0.148975789499	-0.091444310407	0.782468303294	0.062841795403	-0.127858694972	0.978596686630	0.137842977071	-0.098718080175	0.607605228693	0.357589947986	0.149091615788	0.598382342969	0.237905310546	0.138283311062	0.528757428133	0.289776435269	0.194735509618	0.469210817630	0.356533035291	0.140073179856	0.765114995473	0.407916822656	-0.089125037119	0.778610571796	0.279691303825	-0.087402503459	0.630438680649	0.358440697345	-0.096000917402	0.716274874008	0.315065433029	-0.144974840435	0.636447603990	0.465926628450	0.135980395319	0.764121627831	0.527967218282	-0.072893510884	0.691027810748	0.775622823589	0.167306714755	0.609029037839	0.705980041112	0.223062721632	0.676747687878	0.616958869746	0.134527447129	0.699541582528	0.819938676321	-0.096818416162	0.738407315438	0.669871985198	-0.077309671177	0.628831709611	0.728859153189	-0.149763809151	0.650610102717	0.957655629193	-0.073116664792	0.682446568455	0.936492955863	0.159684843451	0.580097387767	1.445785601466	0.231803176994	0.603980221217	1.435528976323	-0.097666035515	0.548561348658	1.480562341468	0.084367626571	0.669408316320	1.382281811269	0.071315694967	0.725770353647	1.202505271737	0.058100148341	0.465678582455	1.325491207272	0.074804585731	0.550816897812	1.173887618716	-0.274983810083	0.615350293637	0.988342834950	-0.432280394779	0.553666630429	1.142245846448	0.390322146372	0.763427417370	0.990482893806	0.414867997082	
6	0.033290043290	0.480681877249	0.049403508750	0.082892891299	0.647416281191	0.097983985967	0.116301720601	0.549812656733	0.038077359618	0.147862989256	0.762019819080	0.054547495263	0.140145083391	0.702515054589	0.055615511224	-0.069282251316	0.854174747529	0.148484427755	-0.091420569037	0.781193311460	0.062557997796	-0.127898147912	0.977475179958	0.137031803307	-0.098626582414	0.607641333124	0.357580328579	0.149092661384	0.598403299207	0.237905356755	0.138292620770	0.528777936617	0.289778771598	0.194729024810	0.469246076122	0.356540644115	0.140069037127	0.764818352544	0.407648182226	-0.089075875558	0.777904835122	0.279356356153	-0.087405999521	0.630051210997	0.358568546441	-0.096037186606	0.715767880854	0.314943012585	-0.144998233878	0.636492425282	0.465918815878	0.135991000867	0.764175590569	0.527709008174	-0.072847476705	0.691086423847	0.775616610273	0.167322162770	0.609074523244	0.705979579125	0.223073979052	0.676807034798	0.616962500042	0.134553041374	0.699643392549	0.819889068582	-0.096782232787	0.738504567642	0.669730259177	-0.077317663326	0.628943545580	0.728801898393	-0.149754064648	0.650723325493	0.957635934247	-0.073084569501	0.682555646338	0.936514866862	0.159687431895	0.580083056654	1.445778845813	0.231811144311	0.604008141057	1.435529817185	-0.097658593466	0.548567450538	1.480551523382	0.084383265088	0.669434455531	1.382278919632	0.071339082814	0.725800665128	1.202506102507	0.058139810154	0.465751052438	1.325456884251	0.074771306697	0.550830040170	1.173884250086	-0.274973738204	0.615354979903	0.988347604471	-0.432274619565	0.553647588270	1.142231406519	0.390317918246	0.763422750233	0.990485200378	0.414872817247	
7	0.039948051948	0.480682276505	0.049403913724	0.082891797453	0.647417567818	0.097989561585	0.116300350929	0.549811367782	0.038076774028	0.147861783347	0.762018189911	0.054550820960	0.140149457240	0.701110206527	0.055502690088	-0.069386727791	0.853033812822	0.147979487593	-0.091395976931	0.779860011188	0.062266675501	-0.127936253798	0.976302021919	0.136200713278	-0.098536333171	0.607677567576	0.357571093420	0.149093685640	0.598424377874	0.237904999265	0.138301141964	0.528798835133	0.289781266990	0.194722742760	0.469281597908	0.356548573458	0.140065023161	0.764506407628	0.407370620244	-0.089024837636	0.777169439211	0.279011943810	-0.087406050995	0.629640529856	0.358700709197	-0.096075971127	0.715234967464	0.314816006791	-0.145019314971	0.636538151495	0.465909856837	0.136003982914	0.764229525731	0.527442245013	-0.072801222293	0.691147236778	0.775610073106	0.167336768487	0.609121976279	0.705979069807	0.223084732777	0.676867495471	0.616965211558	0.134577704394	0.699743981078	0.819838404937	-0.096749392395	0.738600700067	0.669586360293	-0.077328193789	0.629053583087	0.728742213537	-0.149742818520	0.650836877005	0.957616600968	-0.073054056024	0.682675668322	0.936539400529	0.159683942103	0.580067085656	1.445771062960	0.231819693070	0.604036472256	1.435530274245	-0.097650518638	0.548573253564	1.480540741831	0.084398804810	0.669460841039	1.382276667920	0.071363062684	0.725832088261	1.202507578206	0.058179705056	0.465821138452	1.325423120150	0.074739276638	0.550844074758	1.173880924910	-0.274963095358	0.615359518420	0.988351992571	-0.432268814283	0.553627075645	1.142214670676	0.390311972724	0.763417816305	0.990487233889	0.414877070838	
